<svg xmlns="http://www.w3.org/2000/svg" viewBox="0 0 60.59 60"><defs><style>.cls-1,.cls-2,.cls-3,.cls-4,.cls-5{fill:none;}.cls-1,.cls-4{stroke:#545454;}.cls-1,.cls-3,.cls-4,.cls-5{stroke-linecap:round;stroke-miterlimit:10;}.cls-1,.cls-5{stroke-width:1.6px;}.cls-3{stroke:#42af6f;}.cls-3,.cls-4{stroke-width:1.5px;}.cls-5{stroke:#2b6cb0;}</style></defs><title>lineicon_atdd</title><g id="Ebene_2" data-name="Ebene 2"><g id="Ebene_1-2" data-name="Ebene 1"><path class="cls-1" d="M4.52,43A28.84,28.84,0,0,1,50.73,9.77"/><path class="cls-1" d="M55.06,15.3A28.84,28.84,0,0,1,10,50.55"/><polyline class="cls-1" points="51.05 2.98 51.05 10.07 43.95 10.07"/><polyline class="cls-1" points="16.7 50.22 9.61 50.22 9.61 57.31"/><rect class="cls-2" width="60.59" height="60"/><path class="cls-3" d="M15.11,35.05H12.45A1.44,1.44,0,0,0,11,36.49v2.84H33.88V36.49a1.43,1.43,0,0,0-1.44-1.44h-3"/><line class="cls-4" x1="9.01" y1="28.35" x2="21.21" y2="28.35"/><line class="cls-3" x1="17.41" y1="19.37" x2="22.77" y2="23.13"/><path class="cls-4" d="M26.13,19.37a5.24,5.24,0,0,1,2.81,5,6.57,6.57,0,0,1-11.77,4H12.89a10.29,10.29,0,0,0,19.76-4c0-3.17-1.55-5.72-4.23-8.23"/><rect class="cls-3" x="19.44" y="10.45" width="6.67" height="14.46" transform="translate(14.78 -10.02) rotate(36.09)"/><polyline class="cls-3" points="25.86 10.51 28.75 6.54 31.55 8.57 28.54 12.71"/><polyline class="cls-5" points="40.89 49.94 34.65 43.7 40.57 37.78"/><polyline class="cls-5" points="46.03 37.8 51.9 44.04 45.98 49.97"/></g></g></svg>