<svg xmlns="http://www.w3.org/2000/svg" viewBox="0 0 60 60"><defs><style>.cls-1,.cls-2,.cls-4,.cls-5,.cls-6{fill:none;}.cls-1{stroke:#545454;}.cls-1,.cls-2,.cls-4,.cls-6{stroke-linecap:round;stroke-miterlimit:10;}.cls-1,.cls-2,.cls-6{stroke-width:1.5px;}.cls-2,.cls-4{stroke:#2b6cb0;}.cls-3{fill:#2b6cb0;}.cls-4{stroke-width:1.6px;}.cls-6{stroke:#42af6f;}</style></defs><title>lineicon_tdd</title><g id="Ebene_2" data-name="Ebene 2"><g id="Ebene_1-2" data-name="Ebene 1"><polyline class="cls-1" points="40.13 57.56 10.21 57.56 10.21 40.34"/><path class="cls-1" d="M30,18.8H55.07A2.93,2.93,0,0,1,58,21.75V45.26"/><line class="cls-1" x1="30.92" y1="25.63" x2="56.99" y2="25.63"/><line class="cls-1" x1="21.52" y1="50.72" x2="35.22" y2="50.72"/><line class="cls-2" x1="21.52" y1="44.37" x2="31.1" y2="44.37"/><circle class="cls-3" cx="16.24" cy="44.37" r="1.11"/><circle class="cls-3" cx="16.24" cy="50.59" r="1.11"/><polyline class="cls-4" points="47.5 58.28 41.26 52.04 47.18 46.12"/><polyline class="cls-4" points="52.64 46.14 58.51 52.38 52.59 58.3"/><rect class="cls-5" width="60" height="60"/><path class="cls-6" d="M8.21,32H3.55a1.44,1.44,0,0,0-1.44,1.44v2.85H29V33.47A1.44,1.44,0,0,0,27.54,32H22.49"/><line class="cls-1" x1="2.11" y1="25.33" x2="14.31" y2="25.33"/><line class="cls-6" x1="10.51" y1="16.36" x2="15.87" y2="20.11"/><path class="cls-1" d="M19.22,16.36A5.22,5.22,0,0,1,22,21.31a6.59,6.59,0,0,1-6.59,6.59,6.52,6.52,0,0,1-5.18-2.57H6a10.29,10.29,0,0,0,19.76-4c0-3.17-1.55-5.71-4.23-8.23"/><rect class="cls-6" x="12.54" y="7.43" width="6.67" height="14.46" transform="translate(11.68 -6.54) rotate(36.09)"/><polyline class="cls-6" points="18.95 7.5 21.85 3.52 24.65 5.56 21.64 9.69"/></g></g></svg>